<?xml version="1.0" encoding="UTF-8" standalone="no"?>
<svg
   xmlns:dc="http://purl.org/dc/elements/1.1/"
   xmlns:cc="http://creativecommons.org/ns#"
   xmlns:rdf="http://www.w3.org/1999/02/22-rdf-syntax-ns#"
   xmlns:svg="http://www.w3.org/2000/svg"
   xmlns="http://www.w3.org/2000/svg"
   id="Layer_1"
   data-name="Layer 1"
   viewBox="0 0 800 166.05414"
   version="1.1"
   width="800"
   height="166.05414">
  <title>Futurice_Logo_Green_RGB</title>
  <path
     class="cls-1"
     d="m 771.43,95.184137 c 0,-11.51 -5.32,-23.25 -23.25,-23.25 -15.5,0 -22.81,11.51 -24.14,23.25 z m 27.46,42.300003 c -9.96,17.52 -25.24,28.52 -49.82,28.52 -36.32,0 -55.14,-23 -55.14,-59.35 0,-36.090003 21.26,-58.000003 53.59,-58.000003 31,0 52.48,16.61 52.48,52.700003 v 13.29 h -76.4 c 0.67,18.38 11.29,27.68 24.8,27.68 12.4,0 21.92,-6.2 27,-16.83 z M 626.62,48.684137 c 27,0 41.85,11.52 49.16,35 l -27,6.64 c -3.78,-11.32 -10.64,-17.06 -21.27,-17.06 -16.61,0 -25,11.29 -25,34.100003 0,22.81 8.19,34.1 25,34.1 10.63,0 17.49,-5.76 21.26,-17.05 l 27,6.64 c -7.31,23.47 -22.14,35 -49.16,35 -34.1,0 -54.7,-22.14 -54.7,-58.68 0,-36.540003 20.59,-58.680003 54.7,-58.680003 M 544.48,163.83414 H 515.24 V 50.894137 h 29.23 z M 530.08,2.1741373 A 17.94,17.94 0 1 1 512.14,20.114137 17.86,17.86 0 0 1 530.08,2.1741373 m -35.2,73.2999997 h -39.2 V 163.83414 H 426.45 V 50.894137 h 68.43 z M 366.24,117.55414 V 50.894137 h 29.23 v 66.430003 c 0,32.77 -16.61,48.72 -49.16,48.72 -32.55,0 -49.38,-15.94 -49.38,-48.72 V 50.894137 h 29.23 v 66.650003 c 0,17.27 7.09,23.92 20.15,23.92 13.06,0 19.93,-6.64 19.93,-23.92 M 208.58,8.8241373 h 29.23 V 50.904137 h 36.09 v 24.58 h -36.09 v 50.000003 c 0,12.18 6.42,15.95 14.84,15.95 6.64,0 10.41,-2.44 15.06,-6.64 l 11.29,20.84 a 50.81,50.81 0 0 1 -31.45,10.37 c -25.24,0 -39,-14.84 -39,-37 z m -58,108.7300027 V 50.894137 h 29.22 v 66.430003 c 0,32.77 -16.61,48.72 -49.16,48.72 -32.55,0 -49.38,-15.94 -49.38,-48.72 V 50.894137 h 29.23 v 66.650003 c 0,17.27 7.09,23.92 20.15,23.92 13.06,0 19.93,-6.64 19.93,-23.92 M 0,37.164137 C 0,15.004137 13.73,0.00413728 39,0.00413728 A 51.2,51.2 0 0 1 68.65,9.0041373 L 57.13,29.374137 a 20,20 0 0 0 -13.73,-4.87 c -9.52,0 -14.17,6 -14.17,15.94 v 10.41 h 33.88 v 24.58 H 29.23 V 163.79414 H 0 Z"
     id="path8"
     style="fill:#329e41" />
</svg>
