<?xml version="1.0" encoding="UTF-8"?>
<svg width="107px" height="107px" viewBox="0 0 107 107" version="1.1" xmlns="http://www.w3.org/2000/svg" xmlns:xlink="http://www.w3.org/1999/xlink">
    <!-- Generator: Sketch 42 (36781) - http://www.bohemiancoding.com/sketch -->
    <title>Logomark - Single Color</title>
    <desc>Created with Sketch.</desc>
    <defs></defs>
    <g id="Day-One-Brand-Guide" stroke="none" stroke-width="1" fill="none" fill-rule="evenodd">
        <g id="02.06-Logo-Colored-BGs" transform="translate(-825.000000, -614.000000)" fill="#44C0FF">
            <g id="05---Single-Color-on-Paper" transform="translate(745.000000, 534.000000)">
                <path d="M179.656575,172.205418 C179.656575,176.321253 176.319788,179.657308 172.204685,179.657308 L94.7945822,179.657308 C90.6787466,179.657308 87.3426918,176.320521 87.3426918,172.205418 L87.3426918,94.7953151 C87.3426918,90.6794795 90.6794795,87.3434247 94.7945822,87.3434247 L111.470459,87.3434247 L111.470459,145.679678 C111.470459,147.766178 113.031486,148.736507 114.956753,147.843863 L131.617973,140.12374 C132.581705,139.677418 134.143466,139.674486 135.109397,140.116411 L152.035185,147.861452 C153.965582,148.744568 155.528808,147.767644 155.528808,145.679678 L155.528808,87.3434247 L172.204685,87.3434247 C176.320521,87.3434247 179.656575,90.6802123 179.656575,94.7953151 L179.656575,172.205418 Z M172.204685,80 L94.7945822,80 C86.6369315,80 80,86.6376644 80,94.7953151 L80,172.205418 C80,180.363068 86.6369315,187 94.7945822,187 L172.204685,187 C180.362336,187 187,180.363068 187,172.205418 L187,94.7953151 C187,86.6376644 180.362336,80 172.204685,80 L172.204685,80 Z" id="Logomark---Single-Color"></path>
            </g>
        </g>
    </g>
</svg>